<svg width="175" height="18" viewBox="0 0 175 18" fill="none" xmlns="http://www.w3.org/2000/svg">
<path d="M0.781787 5.43642H4.34192C5.248 5.43642 5.94559 5.67296 6.43471 6.14604C6.93184 6.61912 7.18041 7.26059 7.18041 8.07044C7.18041 8.88029 6.93184 9.52176 6.43471 9.99484C5.94559 10.4679 5.248 10.7045 4.34192 10.7045H1.7921V14H0.781787V5.43642ZM1.7921 9.79037H4.34192C4.93528 9.79037 5.3803 9.64604 5.67698 9.35738C5.98167 9.06071 6.13402 8.63172 6.13402 8.07044C6.13402 7.50916 5.98167 7.08419 5.67698 6.79553C5.3803 6.49885 4.93528 6.35051 4.34192 6.35051H1.7921V9.79037ZM11.2843 7.69759C11.4447 7.69759 11.5529 7.7016 11.6091 7.70962V8.63573H11.3685C10.7271 8.63573 10.2259 8.7961 9.86508 9.11683C9.51227 9.42955 9.33587 9.87857 9.33587 10.4639V14H8.37367V7.79381H9.28776V8.88831C9.70471 8.0945 10.3702 7.69759 11.2843 7.69759ZM17.2557 13.2543C16.6864 13.8476 15.9647 14.1443 15.0907 14.1443C14.2167 14.1443 13.4951 13.8476 12.9258 13.2543C12.3645 12.669 12.0839 11.8832 12.0839 10.8969C12.0839 9.91065 12.3645 9.12485 12.9258 8.53951C13.4951 7.94616 14.2167 7.64948 15.0907 7.64948C15.9647 7.64948 16.6864 7.94616 17.2557 8.53951C17.817 9.12485 18.0976 9.91065 18.0976 10.8969C18.0976 11.8832 17.817 12.669 17.2557 13.2543ZM13.6354 12.6409C13.9962 13.0659 14.4814 13.2783 15.0907 13.2783C15.7001 13.2783 16.1852 13.0659 16.5461 12.6409C16.9069 12.2239 17.0873 11.6426 17.0873 10.8969C17.0873 10.1432 16.9069 9.55784 16.5461 9.14089C16.1852 8.72394 15.7001 8.51546 15.0907 8.51546C14.4814 8.51546 13.9962 8.72394 13.6354 9.14089C13.2746 9.55784 13.0942 10.1432 13.0942 10.8969C13.0942 11.6426 13.2746 12.2239 13.6354 12.6409ZM24.1512 8.68384V5.43642H25.1134V14H24.1993V13.0378C23.7022 13.7755 22.9926 14.1443 22.0704 14.1443C21.1964 14.1443 20.4989 13.8476 19.9777 13.2543C19.4485 12.6609 19.1838 11.8751 19.1838 10.8969C19.1838 9.90263 19.4485 9.11282 19.9777 8.52749C20.4908 7.94215 21.1884 7.64948 22.0704 7.64948C22.9605 7.64948 23.6541 7.99427 24.1512 8.68384ZM20.1942 10.945C20.1942 11.6827 20.3746 12.256 20.7354 12.6649C21.0962 13.0739 21.5813 13.2783 22.1907 13.2783C22.8001 13.2783 23.2852 13.0659 23.646 12.6409C24.0069 12.2239 24.1873 11.6426 24.1873 10.8969C24.1873 10.1592 24.0069 9.57789 23.646 9.15292C23.2852 8.72794 22.8001 8.51546 22.1907 8.51546C21.5893 8.51546 21.1042 8.73596 20.7354 9.17697C20.3746 9.60996 20.1942 10.1993 20.1942 10.945ZM30.8853 11.3058V7.79381H31.8475V14H30.9334V13.0739C30.4603 13.7875 29.8108 14.1443 28.9849 14.1443C28.2954 14.1443 27.7581 13.9559 27.3733 13.579C26.9884 13.2022 26.7959 12.673 26.7959 11.9914V7.79381H27.7581V11.8952C27.7581 12.8173 28.2312 13.2783 29.1774 13.2783C29.6264 13.2783 30.0233 13.11 30.3681 12.7732C30.7129 12.4364 30.8853 11.9473 30.8853 11.3058ZM36.1057 14.1443C35.2477 14.1443 34.5541 13.8476 34.0249 13.2543C33.4957 12.6609 33.2311 11.8751 33.2311 10.8969C33.2311 9.90263 33.4957 9.11282 34.0249 8.52749C34.5381 7.94215 35.2317 7.64948 36.1057 7.64948C36.8434 7.64948 37.4488 7.84994 37.9218 8.25085C38.3949 8.65177 38.6796 9.20103 38.7758 9.89862H37.7775C37.7053 9.45761 37.5129 9.11683 37.2002 8.87628C36.8955 8.63573 36.5307 8.51546 36.1057 8.51546C35.5364 8.51546 35.0833 8.72394 34.7466 9.14089C34.4098 9.54982 34.2414 10.1352 34.2414 10.8969C34.2414 11.6506 34.4098 12.236 34.7466 12.6529C35.0914 13.0699 35.5444 13.2783 36.1057 13.2783C36.5307 13.2783 36.8995 13.1541 37.2122 12.9055C37.5249 12.6569 37.7174 12.3121 37.7895 11.8711H38.7758C38.6715 12.5687 38.3749 13.122 37.8858 13.5309C37.4047 13.9399 36.8113 14.1443 36.1057 14.1443ZM45.4569 10.8969V11.2337H40.7421C40.7902 11.9072 40.9786 12.4164 41.3074 12.7612C41.6361 13.0979 42.0852 13.2663 42.6545 13.2663C43.5124 13.2663 44.0617 12.8814 44.3022 12.1117H45.3005C45.1321 12.7371 44.8194 13.2342 44.3624 13.6031C43.9053 13.9639 43.328 14.1443 42.6304 14.1443C41.7724 14.1443 41.0789 13.8517 40.5497 13.2663C40.0124 12.681 39.7438 11.8912 39.7438 10.8969C39.7438 9.91867 40.0084 9.13287 40.5376 8.53951C41.0588 7.94616 41.7484 7.64948 42.6064 7.64948C43.4964 7.64948 44.194 7.95819 44.6991 8.5756C45.2043 9.19301 45.4569 9.96678 45.4569 10.8969ZM42.6064 8.52749C42.1012 8.52749 41.6883 8.68785 41.3675 9.00859C41.0468 9.3213 40.8463 9.77434 40.7661 10.3677H44.4225C44.3744 9.82245 44.19 9.38144 43.8692 9.04467C43.5485 8.69988 43.1275 8.52749 42.6064 8.52749ZM51.5058 8.68384V5.43642H52.468V14H51.5539V13.0378C51.0567 13.7755 50.3471 14.1443 49.425 14.1443C48.551 14.1443 47.8534 13.8476 47.3322 13.2543C46.803 12.6609 46.5384 11.8751 46.5384 10.8969C46.5384 9.90263 46.803 9.11282 47.3322 8.52749C47.8454 7.94215 48.543 7.64948 49.425 7.64948C50.315 7.64948 51.0086 7.99427 51.5058 8.68384ZM47.5487 10.945C47.5487 11.6827 47.7291 12.256 48.09 12.6649C48.4508 13.0739 48.9359 13.2783 49.5453 13.2783C50.1547 13.2783 50.6398 13.0659 51.0006 12.6409C51.3614 12.2239 51.5418 11.6426 51.5418 10.8969C51.5418 10.1592 51.3614 9.57789 51.0006 9.15292C50.6398 8.72794 50.1547 8.51546 49.5453 8.51546C48.9439 8.51546 48.4588 8.73596 48.09 9.17697C47.7291 9.60996 47.5487 10.1993 47.5487 10.945ZM59.7244 7.64948C60.5984 7.64948 61.3 7.94215 61.8292 8.52749C62.3504 9.12084 62.611 9.91065 62.611 10.8969C62.611 11.8751 62.3504 12.6609 61.8292 13.2543C61.3 13.8476 60.5984 14.1443 59.7244 14.1443C58.8023 14.1443 58.0927 13.7755 57.5955 13.0378V14H56.6814V5.43642H57.6436V8.68384C58.1408 7.99427 58.8344 7.64948 59.7244 7.64948ZM59.6041 13.2783C60.2055 13.2783 60.6866 13.0619 61.0474 12.6289C61.4163 12.1879 61.6007 11.5945 61.6007 10.8488C61.6007 10.1191 61.4203 9.54982 61.0594 9.14089C60.7066 8.72394 60.2215 8.51546 59.6041 8.51546C58.9947 8.51546 58.5096 8.72394 58.1488 9.14089C57.788 9.55784 57.6076 10.1432 57.6076 10.8969C57.6076 11.6426 57.788 12.2239 58.1488 12.6409C58.5096 13.0659 58.9947 13.2783 59.6041 13.2783ZM66.6837 10.3677L67.5617 7.79381H68.6081L65.9861 14.9742C65.8017 15.4954 65.5491 15.8602 65.2284 16.0687C64.9076 16.2852 64.4867 16.3935 63.9655 16.3935C63.7891 16.3935 63.5966 16.3814 63.3882 16.3574V15.5515H63.9535C64.5067 15.5515 64.8836 15.295 65.084 14.7818L65.3005 14.2045L62.9672 7.79381H64.0256L64.9036 10.3797C65.2163 11.2938 65.513 12.1879 65.7937 13.0619C66.0262 12.3161 66.3229 11.4181 66.6837 10.3677ZM77.7651 9.51374L79.1963 5.43642H81.5537V14H80.0022V11.39C80.0022 9.78636 80.0182 8.37113 80.0503 7.14432C79.8739 7.7457 79.6574 8.4032 79.4008 9.11683L77.6688 14H76.3338L74.5898 9.11683C74.2851 8.2268 74.0726 7.57731 73.9523 7.16838C73.9844 8.38717 74.0005 9.79438 74.0005 11.39V14H72.4369V5.43642H74.7943L76.2737 9.59793C76.3699 9.87857 76.6144 10.6523 77.0073 11.9192C77.2639 11.0292 77.5165 10.2274 77.7651 9.51374ZM88.9512 11.0051V11.366H84.3086C84.3647 11.8952 84.5291 12.2961 84.8017 12.5687C85.0823 12.8333 85.4552 12.9656 85.9203 12.9656C86.6098 12.9656 87.0829 12.669 87.3395 12.0756H88.7948C88.6345 12.709 88.2977 13.2142 87.7845 13.5911C87.2714 13.9599 86.6459 14.1443 85.9082 14.1443C84.9861 14.1443 84.2404 13.8476 83.6711 13.2543C83.1018 12.6609 82.8172 11.8751 82.8172 10.8969C82.8172 9.91867 83.0978 9.13287 83.6591 8.53951C84.2284 7.94616 84.9701 7.64948 85.8842 7.64948C86.8223 7.64948 87.568 7.95819 88.1213 8.5756C88.6746 9.19301 88.9512 10.0029 88.9512 11.0051ZM85.8722 8.82817C84.9821 8.82817 84.4649 9.3213 84.3206 10.3076H87.4357C87.3716 9.85051 87.2032 9.48969 86.9306 9.22508C86.6579 8.96048 86.3051 8.82817 85.8722 8.82817ZM93.4899 7.69759C93.6262 7.69759 93.7505 7.70561 93.8627 7.72164V9.11683H93.4779C92.9005 9.11683 92.4555 9.26517 92.1428 9.56185C91.8381 9.85051 91.6858 10.2795 91.6858 10.8488V14H90.1703V7.79381H91.6376V8.90034C91.9824 8.09851 92.5998 7.69759 93.4899 7.69759ZM97.4296 14.1443C96.5155 14.1443 95.7739 13.8476 95.2046 13.2543C94.6433 12.669 94.3626 11.8832 94.3626 10.8969C94.3626 9.90263 94.6433 9.11282 95.2046 8.52749C95.7578 7.94215 96.4995 7.64948 97.4296 7.64948C98.2395 7.64948 98.901 7.86597 99.4142 8.29896C99.9273 8.72394 100.228 9.30125 100.316 10.0309H98.8008C98.7286 9.6701 98.5722 9.39347 98.3317 9.20103C98.0911 9.00859 97.7905 8.91237 97.4296 8.91237C96.9566 8.91237 96.5837 9.08476 96.3111 9.42955C96.0465 9.76632 95.9142 10.2554 95.9142 10.8969C95.9142 11.5384 96.0505 12.0315 96.3231 12.3763C96.5957 12.7131 96.9646 12.8814 97.4296 12.8814C97.7985 12.8814 98.1072 12.7812 98.3558 12.5808C98.6123 12.3723 98.7687 12.0756 98.8248 11.6907H100.34C100.26 12.4364 99.9554 13.0338 99.4262 13.4828C98.897 13.9238 98.2315 14.1443 97.4296 14.1443ZM105.476 11.2698V7.79381H106.991V14H105.524V13.0979C105.051 13.7955 104.401 14.1443 103.575 14.1443C102.91 14.1443 102.381 13.9519 101.988 13.567C101.603 13.1741 101.41 12.6208 101.41 11.9072V7.79381H102.926V11.6546C102.926 12.4404 103.315 12.8333 104.092 12.8333C104.477 12.8333 104.802 12.697 105.067 12.4244C105.339 12.1438 105.476 11.7589 105.476 11.2698ZM126.241 7.69759C126.378 7.69759 126.502 7.70561 126.614 7.72164V9.11683H126.229C125.652 9.11683 125.207 9.26517 124.894 9.56185C124.59 9.85051 124.437 10.2795 124.437 10.8488V14H122.922V7.79381H124.389V8.90034C124.734 8.09851 125.351 7.69759 126.241 7.69759ZM131.326 9.35738L131.832 7.79381H133.419L131.026 14.5051C130.769 15.2108 130.448 15.6959 130.064 15.9605C129.671 16.2331 129.101 16.3694 128.356 16.3694C128.107 16.3694 127.887 16.3574 127.694 16.3333V15.1426H128.271C128.6 15.1426 128.853 15.0504 129.029 14.866C129.206 14.6816 129.294 14.441 129.294 14.1443C129.294 13.8476 129.198 13.4307 129.005 12.8935L127.201 7.79381H128.837L129.342 9.34536C129.695 10.4519 130.023 11.6065 130.328 12.8093C130.569 11.9032 130.901 10.7526 131.326 9.35738ZM138.847 14H137.223V5.43642H138.847V14ZM143.814 7.64948C144.487 7.64948 145.017 7.84593 145.401 8.23883C145.794 8.62371 145.991 9.17296 145.991 9.88659V14H144.475V10.1392C144.475 9.35337 144.086 8.96048 143.309 8.96048C142.924 8.96048 142.595 9.1008 142.322 9.38144C142.058 9.65406 141.925 10.0349 141.925 10.5241V14H140.41V7.79381H141.877V8.68384C142.35 7.99427 142.996 7.64948 143.814 7.64948ZM147.909 7.79381V7.32474C147.909 6.72336 148.078 6.25429 148.415 5.91752C148.751 5.57273 149.26 5.40034 149.942 5.40034C150.247 5.40034 150.507 5.41237 150.724 5.43642V6.60309H150.195C149.673 6.60309 149.413 6.85166 149.413 7.34879V7.79381H150.688V8.94845H149.413V14H147.909V8.94845H146.947V7.79381H147.909ZM151.542 5.56872H153.033V6.98797H151.542V5.56872ZM151.53 14V7.79381H153.045V14H151.53ZM157.931 7.64948C158.605 7.64948 159.134 7.84593 159.519 8.23883C159.912 8.62371 160.108 9.17296 160.108 9.88659V14H158.593V10.1392C158.593 9.35337 158.204 8.96048 157.426 8.96048C157.041 8.96048 156.713 9.1008 156.44 9.38144C156.175 9.65406 156.043 10.0349 156.043 10.5241V14H154.528V7.79381H155.995V8.68384C156.468 7.99427 157.114 7.64948 157.931 7.64948ZM163.084 6.98797H161.593V5.56872H163.084V6.98797ZM163.096 14H161.581V7.79381H163.096V14ZM167.793 7.79381V8.94845H166.567V12.3041C166.567 12.5046 166.619 12.6449 166.723 12.7251C166.835 12.8053 167.02 12.8454 167.276 12.8454H167.793V14C167.465 14.0321 167.2 14.0481 167 14.0481C166.326 14.0481 165.833 13.9238 165.52 13.6753C165.215 13.4187 165.063 13.0137 165.063 12.4605V8.94845H164.101V7.79381H165.063V5.98969H166.567V7.79381H167.793ZM172.469 9.35738L172.974 7.79381H174.562L172.169 14.5051C171.912 15.2108 171.591 15.6959 171.206 15.9605C170.814 16.2331 170.244 16.3694 169.499 16.3694C169.25 16.3694 169.029 16.3574 168.837 16.3333V15.1426H169.414C169.743 15.1426 169.996 15.0504 170.172 14.866C170.348 14.6816 170.437 14.441 170.437 14.1443C170.437 13.8476 170.34 13.4307 170.148 12.8935L168.344 7.79381H169.98L170.485 9.34536C170.838 10.4519 171.166 11.6065 171.471 12.8093C171.712 11.9032 172.044 10.7526 172.469 9.35738Z" fill="#FFF3F3" fill-opacity="0.69"/>
<g style="mix-blend-mode:luminosity">
<path d="M118.403 7.2165C117.677 7.2165 116.807 7.675 115.746 8.61962C115.398 8.93173 115.092 9.23832 114.863 9.48138C114.636 9.24108 114.327 8.93173 113.979 8.61962C112.918 7.675 112.051 7.2165 111.322 7.2165C109.626 7.2165 108.247 8.59476 108.247 10.2907C108.247 11.9866 109.626 13.3648 111.322 13.3648C112.048 13.3648 112.918 12.9063 113.979 11.9617C114.327 11.6496 114.633 11.343 114.863 11.0999C115.089 11.3402 115.398 11.6496 115.746 11.9617C116.807 12.9063 117.674 13.3648 118.403 13.3648C120.099 13.3648 121.478 11.9866 121.478 10.2907C121.48 8.59476 120.099 7.2165 118.403 7.2165ZM113.255 11.1497C112.451 11.865 111.747 12.2766 111.324 12.2766C110.231 12.2766 109.338 11.3844 109.338 10.2907C109.338 9.19689 110.231 8.30474 111.324 8.30474C111.747 8.30474 112.446 8.71353 113.247 9.42338C113.603 9.73825 113.915 10.0586 114.131 10.2907C113.915 10.5199 113.609 10.8348 113.255 11.1497ZM118.403 12.2766C117.981 12.2766 117.282 11.8678 116.481 11.1579C116.128 10.8431 115.813 10.5227 115.597 10.2907C115.815 10.0586 116.128 9.73825 116.481 9.42338C117.282 8.71077 117.984 8.30474 118.403 8.30474C119.497 8.30474 120.389 9.19689 120.389 10.2907C120.389 11.3872 119.5 12.2766 118.403 12.2766Z" fill="#FFF3F3" fill-opacity="0.69"/>
</g>
</svg>
